# xmcd
#
# Track frame offsets:
#	150
#	15380
#	33725
#	69057
#	129893
#	167164
#	187997
#	210432
#	233858
#	255847
#
# Disc length: 3970 seconds
#
# Revision: 1
# Processed by: cddbd v1.5.2PL0 Copyright (c) Steve Scherf et al.
# Submitted via: MusicManager 7.2.0.0 
#
DISCID=710f800a
DTITLE=Davis, Miles  - De Legendes Van de Jazz vol.5 cd2
DYEAR=2007
DGENRE=Jazz
TTITLE0=Old Devil Moon
TTITLE1=It Never Entered My Mind
TTITLE2=I'll Remember April
TTITLE3=Walkin'
TTITLE4=Blue 'N' Boogie
TTITLE5=But Not For Me
TTITLE6=Airegin
TTITLE7=Olco
TTITLE8=Doxy
TTITLE9=Bags' Groove
EXTD=YEAR: 2007
EXTT0=
EXTT1=
EXTT2=
EXTT3=
EXTT4=
EXTT5=
EXTT6=
EXTT7=
EXTT8=
EXTT9=
PLAYORDER=
